<svg xmlns="http://www.w3.org/2000/svg" xmlns:xlink="http://www.w3.org/1999/xlink" width="280" zoomAndPan="magnify" viewBox="49 99 280 160" height="160" preserveAspectRatio="xMidYMid meet" version="1.0"><defs><g/><clipPath id="3d7d433cad"><path d="M 0.441406 5 L 56 5 L 56 66 L 0.441406 66 Z M 0.441406 5 " clip-rule="nonzero"/></clipPath><clipPath id="86feac3f64"><rect x="0" width="266" y="0" height="89"/></clipPath><clipPath id="7a199ecdf9"><path d="M 0.359375 5 L 59 5 L 59 69 L 0.359375 69 Z M 0.359375 5 " clip-rule="nonzero"/></clipPath><clipPath id="80ba6bcc04"><rect x="0" width="261" y="0" height="93"/></clipPath></defs><rect x="-37.5" width="450" fill="#ffffff" y="-37.499999" height="449.999989" fill-opacity="1"/><rect x="-37.5" width="450" fill="#f6f4f0" y="-37.499999" height="449.999989" fill-opacity="1"/><g transform="matrix(1, 0, 0, 1, 49, 99)"><g clip-path="url(#86feac3f64)"><g clip-path="url(#3d7d433cad)"><g fill="#004aad" fill-opacity="1"><g transform="translate(0.611318, 65.917572)"><g><path d="M 25.265625 -59.296875 L 19.265625 -59.296875 L 19.265625 -26.828125 L 25.265625 -26.828125 C 28.273438 -26.828125 30.894531 -27.550781 33.125 -29 C 35.351562 -30.445312 37.101562 -32.398438 38.375 -34.859375 C 39.644531 -37.316406 40.28125 -40.050781 40.28125 -43.0625 C 40.28125 -46.070312 39.644531 -48.789062 38.375 -51.21875 C 37.101562 -53.644531 35.351562 -55.597656 33.125 -57.078125 C 30.894531 -58.554688 28.273438 -59.296875 25.265625 -59.296875 Z M 19.265625 -25.265625 L 19.265625 -6.9375 C 19.265625 -4.800781 19.695312 -3.34375 20.5625 -2.5625 C 21.4375 -1.78125 22.453125 -1.390625 23.609375 -1.390625 L 23.609375 0 L 0 0 L 0 -1.390625 C 1.15625 -1.390625 2.164062 -1.78125 3.03125 -2.5625 C 3.90625 -3.34375 4.34375 -4.800781 4.34375 -6.9375 L 4.34375 -53.734375 C 4.34375 -55.929688 3.90625 -57.40625 3.03125 -58.15625 C 2.164062 -58.914062 1.15625 -59.296875 0 -59.296875 L 0 -60.765625 C 4.28125 -60.765625 8.34375 -60.765625 12.1875 -60.765625 C 16.039062 -60.765625 19.90625 -60.765625 23.78125 -60.765625 C 27.664062 -60.765625 31.75 -60.765625 36.03125 -60.765625 C 39.269531 -60.765625 42.347656 -60.113281 45.265625 -58.8125 C 48.191406 -57.507812 50.582031 -55.554688 52.4375 -52.953125 C 54.289062 -50.347656 55.21875 -47.050781 55.21875 -43.0625 C 55.21875 -39.0625 54.289062 -35.742188 52.4375 -33.109375 C 50.582031 -30.484375 48.191406 -28.519531 45.265625 -27.21875 C 42.347656 -25.914062 39.269531 -25.265625 36.03125 -25.265625 Z M 19.265625 -25.265625 "/></g></g></g></g><g fill="#004aad" fill-opacity="1"><g transform="translate(55.461933, 65.917572)"><g><path d="M 34.8125 0 C 33.65625 0 32.628906 -0.375 31.734375 -1.125 C 30.835938 -1.875 30.390625 -3.320312 30.390625 -5.46875 L 30.390625 -7.546875 C 28.359375 -5.117188 25.863281 -3.253906 22.90625 -1.953125 C 19.957031 -0.648438 16.863281 0 13.625 0 C 9.164062 0 5.78125 -1.125 3.46875 -3.375 C 1.15625 -5.632812 0 -8.269531 0 -11.28125 C 0 -13.945312 0.632812 -16.203125 1.90625 -18.046875 C 3.175781 -19.898438 4.8125 -21.507812 6.8125 -22.875 C 8.8125 -24.238281 10.953125 -25.46875 13.234375 -26.5625 C 15.523438 -27.664062 17.722656 -28.78125 19.828125 -29.90625 C 21.941406 -31.03125 23.722656 -32.316406 25.171875 -33.765625 C 26.796875 -35.390625 27.519531 -36.835938 27.34375 -38.109375 C 27.164062 -39.378906 26.425781 -40.363281 25.125 -41.0625 C 23.820312 -41.757812 22.273438 -42.050781 20.484375 -41.9375 C 17.535156 -41.8125 15.421875 -41.082031 14.140625 -39.75 C 12.867188 -38.425781 12.394531 -36.992188 12.71875 -35.453125 C 13.039062 -33.921875 14.066406 -32.691406 15.796875 -31.765625 C 15.046875 -30.492188 13.785156 -29.566406 12.015625 -28.984375 C 10.253906 -28.410156 8.679688 -28.15625 7.296875 -28.21875 C 5.492188 -28.269531 3.828125 -28.757812 2.296875 -29.6875 C 0.765625 -30.613281 0 -32.0625 0 -34.03125 C 0 -35.707031 0.546875 -37.125 1.640625 -38.28125 C 2.742188 -39.4375 4.160156 -40.347656 5.890625 -41.015625 C 7.628906 -41.679688 9.507812 -42.1875 11.53125 -42.53125 C 13.5625 -42.882812 15.488281 -43.117188 17.3125 -43.234375 C 19.132812 -43.347656 20.6875 -43.40625 21.96875 -43.40625 C 23.988281 -43.40625 26.226562 -43.226562 28.6875 -42.875 C 31.144531 -42.53125 33.488281 -41.894531 35.71875 -40.96875 C 37.945312 -40.050781 39.785156 -38.75 41.234375 -37.0625 C 42.679688 -35.382812 43.40625 -33.21875 43.40625 -30.5625 L 43.40625 -6.9375 C 43.40625 -4.738281 43.851562 -3.273438 44.75 -2.546875 C 45.644531 -1.828125 46.671875 -1.46875 47.828125 -1.46875 L 47.828125 0 Z M 28.640625 -37.25 C 28.640625 -35.625 28.046875 -34.054688 26.859375 -32.546875 C 25.679688 -31.046875 24.515625 -29.742188 23.359375 -28.640625 C 21.554688 -27.023438 19.890625 -25.507812 18.359375 -24.09375 C 16.828125 -22.675781 15.582031 -21.097656 14.625 -19.359375 C 13.675781 -17.617188 13.171875 -15.445312 13.109375 -12.84375 C 13.046875 -10.125 13.738281 -7.925781 15.1875 -6.25 C 16.632812 -4.570312 18.429688 -3.734375 20.578125 -3.734375 C 22.660156 -3.734375 24.4375 -4.253906 25.90625 -5.296875 C 27.382812 -6.335938 28.5 -7.710938 29.25 -9.421875 C 30.007812 -11.128906 30.390625 -12.9375 30.390625 -14.84375 L 30.390625 -28.640625 C 30.390625 -32.410156 29.804688 -35.28125 28.640625 -37.25 Z M 28.640625 -37.25 "/></g></g></g><g fill="#004aad" fill-opacity="1"><g transform="translate(101.199459, 65.917572)"><g><path d="M 10.84375 -56.515625 C 12.695312 -56.515625 14.242188 -55.875 15.484375 -54.59375 C 16.734375 -53.320312 17.359375 -51.789062 17.359375 -50 C 17.359375 -48.207031 16.734375 -46.675781 15.484375 -45.40625 C 14.242188 -44.132812 12.695312 -43.5 10.84375 -43.5 C 9.050781 -43.5 7.519531 -44.132812 6.25 -45.40625 C 4.976562 -46.675781 4.34375 -48.207031 4.34375 -50 C 4.34375 -51.789062 4.976562 -53.320312 6.25 -54.59375 C 7.519531 -55.875 9.050781 -56.515625 10.84375 -56.515625 Z M 0 0 L 0 -1.46875 C 1.15625 -1.46875 2.164062 -1.828125 3.03125 -2.546875 C 3.90625 -3.273438 4.34375 -4.738281 4.34375 -6.9375 L 4.34375 -32.375 C 4.34375 -34.582031 3.90625 -36.046875 3.03125 -36.765625 C 2.164062 -37.484375 1.15625 -37.84375 0 -37.84375 L 0 -39.328125 C 2.894531 -39.441406 5.929688 -39.914062 9.109375 -40.75 C 12.296875 -41.59375 15.046875 -42.476562 17.359375 -43.40625 L 17.359375 -6.9375 C 17.359375 -4.738281 17.804688 -3.273438 18.703125 -2.546875 C 19.597656 -1.828125 20.628906 -1.46875 21.796875 -1.46875 L 21.796875 0 Z M 0 0 "/></g></g></g><g fill="#004aad" fill-opacity="1"><g transform="translate(120.726003, 65.917572)"><g><path d="M 30.390625 -1.125 L 30.390625 -6.515625 C 26.222656 -2.171875 21.878906 0 17.359375 0 C 14.460938 0 11.679688 -0.820312 9.015625 -2.46875 C 6.359375 -4.125 4.191406 -6.570312 2.515625 -9.8125 C 0.835938 -13.050781 0 -17.015625 0 -21.703125 C 0 -25.691406 0.601562 -29.335938 1.8125 -32.640625 C 3.03125 -35.941406 4.835938 -38.5625 7.234375 -40.5 C 9.640625 -42.4375 12.671875 -43.40625 16.328125 -43.40625 C 18.347656 -43.40625 20.222656 -43.03125 21.953125 -42.28125 C 23.691406 -41.53125 25.203125 -40.570312 26.484375 -39.40625 C 29.367188 -39.582031 32.332031 -40.0625 35.375 -40.84375 C 38.414062 -41.625 41.09375 -42.476562 43.40625 -43.40625 L 43.40625 -5.125 C 43.40625 2.113281 41.144531 7.671875 36.625 11.546875 C 32.113281 15.421875 25.632812 17.359375 17.1875 17.359375 C 15.851562 17.359375 14.332031 17.253906 12.625 17.046875 C 10.914062 16.847656 9.238281 16.488281 7.59375 15.96875 C 5.945312 15.445312 4.515625 14.722656 3.296875 13.796875 C 2.316406 12.992188 1.566406 12.039062 1.046875 10.9375 C 0.523438 9.832031 0.289062 8.734375 0.34375 7.640625 C 0.457031 5.441406 1.351562 3.71875 3.03125 2.46875 C 4.71875 1.226562 6.570312 0.664062 8.59375 0.78125 C 9.75 0.78125 10.875 1.007812 11.96875 1.46875 C 13.070312 1.9375 14.003906 2.691406 14.765625 3.734375 C 13.597656 4.367188 12.710938 5.363281 12.109375 6.71875 C 11.503906 8.082031 11.285156 9.472656 11.453125 10.890625 C 11.628906 12.304688 12.269531 13.476562 13.375 14.40625 C 14.351562 15.164062 15.519531 15.628906 16.875 15.796875 C 18.238281 15.972656 19.617188 15.890625 21.015625 15.546875 C 23.441406 14.960938 25.332031 13.816406 26.6875 12.109375 C 28.050781 10.398438 29.007812 8.390625 29.5625 6.078125 C 30.113281 3.765625 30.390625 1.363281 30.390625 -1.125 Z M 30.390625 -8.6875 L 30.390625 -32.203125 C 28.878906 -34.984375 27.035156 -36.9375 24.859375 -38.0625 C 22.691406 -39.195312 20.65625 -39.15625 18.75 -37.9375 C 17.300781 -37.007812 16.15625 -35.632812 15.3125 -33.8125 C 14.476562 -31.988281 13.882812 -30.050781 13.53125 -28 C 13.1875 -25.945312 13.015625 -24.109375 13.015625 -22.484375 C 13.015625 -19.648438 13.316406 -16.859375 13.921875 -14.109375 C 14.535156 -11.359375 15.65625 -9.171875 17.28125 -7.546875 C 19.007812 -5.753906 21.0625 -4.929688 23.4375 -5.078125 C 25.8125 -5.222656 27.835938 -6.132812 29.515625 -7.8125 C 29.859375 -8.039062 30.148438 -8.332031 30.390625 -8.6875 Z M 30.390625 -8.6875 "/></g></g></g><g fill="#004aad" fill-opacity="1"><g transform="translate(164.120161, 65.917572)"><g><path d="M 43.40625 -30.296875 C 43.40625 -32.722656 42.722656 -34.773438 41.359375 -36.453125 C 40.003906 -38.140625 38.269531 -39.488281 36.15625 -40.5 C 34.039062 -41.507812 31.835938 -42.242188 29.546875 -42.703125 C 27.265625 -43.171875 25.171875 -43.40625 23.265625 -43.40625 C 19.035156 -43.40625 15.15625 -42.507812 11.625 -40.71875 C 8.101562 -38.925781 5.285156 -36.40625 3.171875 -33.15625 C 1.054688 -29.914062 0 -26.097656 0 -21.703125 C 0 -17.472656 1.007812 -13.722656 3.03125 -10.453125 C 5.0625 -7.191406 7.796875 -4.632812 11.234375 -2.78125 C 14.679688 -0.925781 18.460938 0 22.578125 0 C 25.523438 0 28.375 -0.488281 31.125 -1.46875 C 33.875 -2.457031 36.332031 -3.890625 38.5 -5.765625 C 40.664062 -7.648438 42.300781 -9.953125 43.40625 -12.671875 L 42.53125 -13.375 C 40.050781 -11.570312 37.679688 -10.539062 35.421875 -10.28125 C 33.160156 -10.019531 31.332031 -10.28125 29.9375 -11.0625 C 28.550781 -11.84375 27.921875 -12.875 28.046875 -14.15625 C 28.160156 -15.476562 28.707031 -16.546875 29.6875 -17.359375 C 30.675781 -18.171875 31.789062 -18.820312 33.03125 -19.3125 C 34.28125 -19.800781 35.394531 -20.28125 36.375 -20.75 C 38.226562 -21.613281 39.863281 -22.796875 41.28125 -24.296875 C 42.695312 -25.804688 43.40625 -27.804688 43.40625 -30.296875 Z M 17.625 -39.0625 C 19.363281 -40.625 21.097656 -41.535156 22.828125 -41.796875 C 24.566406 -42.054688 26.085938 -41.78125 27.390625 -40.96875 C 28.691406 -40.164062 29.613281 -38.9375 30.15625 -37.28125 C 30.707031 -35.632812 30.664062 -33.679688 30.03125 -31.421875 C 29.75 -30.328125 29.285156 -29.285156 28.640625 -28.296875 C 28.003906 -27.316406 27.367188 -26.332031 26.734375 -25.34375 C 24.941406 -22.507812 24.085938 -19.644531 24.171875 -16.75 C 24.265625 -13.863281 25.898438 -11.460938 29.078125 -9.546875 C 25.722656 -9.660156 22.582031 -10.597656 19.65625 -12.359375 C 16.738281 -14.128906 14.671875 -16.691406 13.453125 -20.046875 C 12.703125 -22.191406 12.34375 -24.453125 12.375 -26.828125 C 12.40625 -29.203125 12.867188 -31.457031 13.765625 -33.59375 C 14.660156 -35.738281 15.945312 -37.5625 17.625 -39.0625 Z M 17.625 -39.0625 "/></g></g></g><g fill="#004aad" fill-opacity="1"><g transform="translate(205.257746, 65.917572)"><g><path d="M 4.25 -42.015625 L 4.078125 -43.5 C 5.984375 -43.726562 7.316406 -44.535156 8.078125 -45.921875 C 7.960938 -45.867188 7.757812 -45.84375 7.46875 -45.84375 C 5.382812 -45.84375 3.617188 -46.578125 2.171875 -48.046875 C 0.722656 -49.523438 0 -51.273438 0 -53.296875 C 0 -55.378906 0.722656 -57.144531 2.171875 -58.59375 C 3.617188 -60.039062 5.382812 -60.765625 7.46875 -60.765625 C 9.488281 -60.765625 11.238281 -60.039062 12.71875 -58.59375 C 14.195312 -57.144531 14.9375 -55.378906 14.9375 -53.296875 C 14.9375 -50.285156 13.878906 -47.738281 11.765625 -45.65625 C 9.648438 -43.570312 7.144531 -42.359375 4.25 -42.015625 Z M 4.25 -42.015625 "/></g></g></g><g fill="#004aad" fill-opacity="1"><g transform="translate(219.663611, 65.917572)"><g><path d="M 43.40625 -12.84375 C 43.40625 -10.1875 42.695312 -8.015625 41.28125 -6.328125 C 39.863281 -4.648438 38.039062 -3.347656 35.8125 -2.421875 C 33.582031 -1.503906 31.238281 -0.867188 28.78125 -0.515625 C 26.320312 -0.171875 24.050781 0 21.96875 0 C 20.6875 0 19.132812 -0.0546875 17.3125 -0.171875 C 15.488281 -0.285156 13.5625 -0.515625 11.53125 -0.859375 C 9.507812 -1.210938 7.628906 -1.722656 5.890625 -2.390625 C 4.160156 -3.054688 2.742188 -3.96875 1.640625 -5.125 C 0.546875 -6.28125 0 -7.695312 0 -9.375 C 0 -11.40625 0.765625 -12.867188 2.296875 -13.765625 C 3.828125 -14.660156 5.492188 -15.132812 7.296875 -15.1875 C 8.617188 -15.25 10.160156 -14.988281 11.921875 -14.40625 C 13.691406 -13.832031 14.957031 -12.910156 15.71875 -11.640625 C 14.039062 -10.765625 13.039062 -9.546875 12.71875 -7.984375 C 12.394531 -6.421875 12.867188 -4.988281 14.140625 -3.6875 C 15.421875 -2.382812 17.535156 -1.644531 20.484375 -1.46875 C 22.679688 -1.351562 24.675781 -1.597656 26.46875 -2.203125 C 28.269531 -2.816406 29.691406 -3.628906 30.734375 -4.640625 C 31.773438 -5.648438 32.296875 -6.773438 32.296875 -8.015625 C 32.296875 -9.265625 31.597656 -10.46875 30.203125 -11.625 C 28.816406 -12.789062 26.5625 -13.773438 23.4375 -14.578125 C 21.820312 -15.046875 19.972656 -15.523438 17.890625 -16.015625 C 15.804688 -16.503906 13.71875 -17.109375 11.625 -17.828125 C 9.539062 -18.554688 7.617188 -19.46875 5.859375 -20.5625 C 4.097656 -21.664062 2.679688 -23.023438 1.609375 -24.640625 C 0.535156 -26.265625 0 -28.238281 0 -30.5625 C 0 -33.21875 0.707031 -35.382812 2.125 -37.0625 C 3.539062 -38.75 5.363281 -40.050781 7.59375 -40.96875 C 9.820312 -41.894531 12.164062 -42.53125 14.625 -42.875 C 17.082031 -43.226562 19.351562 -43.40625 21.4375 -43.40625 C 22.71875 -43.40625 24.269531 -43.347656 26.09375 -43.234375 C 27.914062 -43.117188 29.835938 -42.882812 31.859375 -42.53125 C 33.890625 -42.1875 35.769531 -41.679688 37.5 -41.015625 C 39.238281 -40.347656 40.65625 -39.4375 41.75 -38.28125 C 42.851562 -37.125 43.40625 -35.707031 43.40625 -34.03125 C 43.40625 -32.0625 42.640625 -30.613281 41.109375 -29.6875 C 39.578125 -28.757812 37.910156 -28.269531 36.109375 -28.21875 C 34.785156 -28.15625 33.238281 -28.410156 31.46875 -28.984375 C 29.707031 -29.566406 28.445312 -30.492188 27.6875 -31.765625 C 29.425781 -32.691406 30.441406 -33.921875 30.734375 -35.453125 C 31.023438 -36.992188 30.53125 -38.425781 29.25 -39.75 C 27.976562 -41.082031 25.867188 -41.8125 22.921875 -41.9375 C 20.722656 -42.050781 18.722656 -41.800781 16.921875 -41.1875 C 15.128906 -40.582031 13.710938 -39.773438 12.671875 -38.765625 C 11.628906 -37.753906 11.109375 -36.625 11.109375 -35.375 C 11.109375 -34.132812 11.800781 -32.929688 13.1875 -31.765625 C 14.582031 -30.609375 16.84375 -29.628906 19.96875 -28.828125 C 21.582031 -28.421875 23.429688 -27.957031 25.515625 -27.4375 C 27.597656 -26.914062 29.679688 -26.289062 31.765625 -25.5625 C 33.859375 -24.84375 35.785156 -23.929688 37.546875 -22.828125 C 39.304688 -21.734375 40.722656 -20.375 41.796875 -18.75 C 42.867188 -17.132812 43.40625 -15.164062 43.40625 -12.84375 Z M 43.40625 -12.84375 "/></g></g></g></g></g><g transform="matrix(1, 0, 0, 1, 69, 157)"><g clip-path="url(#80ba6bcc04)"><g clip-path="url(#7a199ecdf9)"><g fill="#004aad" fill-opacity="1"><g transform="translate(0.414814, 68.653713)"><g><path d="M 0 0 L 0 -1.53125 C 1.195312 -1.53125 2.257812 -1.890625 3.1875 -2.609375 C 4.113281 -3.328125 4.578125 -4.828125 4.578125 -7.109375 L 4.578125 -55.734375 C 4.578125 -58.015625 4.113281 -59.53125 3.1875 -60.28125 C 2.257812 -61.03125 1.195312 -61.40625 0 -61.40625 L 0 -62.9375 L 41.453125 -62.9375 C 44.085938 -62.9375 46.46875 -62.320312 48.59375 -61.09375 C 50.71875 -59.863281 52.410156 -58.195312 53.671875 -56.09375 C 54.929688 -54 55.5625 -51.691406 55.5625 -49.171875 C 55.5625 -46.054688 54.644531 -43.269531 52.8125 -40.8125 C 50.988281 -38.351562 48.609375 -36.675781 45.671875 -35.78125 C 49.503906 -34.644531 52.601562 -32.457031 54.96875 -29.21875 C 57.34375 -25.976562 58.53125 -22.382812 58.53125 -18.4375 C 58.53125 -15.070312 57.703125 -11.976562 56.046875 -9.15625 C 54.398438 -6.34375 52.179688 -4.113281 49.390625 -2.46875 C 46.609375 -0.820312 43.507812 0 40.09375 0 Z M 19.953125 -61.40625 L 19.953125 -36.59375 L 27.6875 -36.59375 C 29.96875 -36.59375 32.035156 -37.144531 33.890625 -38.25 C 35.753906 -39.363281 37.238281 -40.878906 38.34375 -42.796875 C 39.457031 -44.710938 40.015625 -46.835938 40.015625 -49.171875 C 40.015625 -51.390625 39.457031 -53.425781 38.34375 -55.28125 C 37.238281 -57.144531 35.753906 -58.628906 33.890625 -59.734375 C 32.035156 -60.847656 29.96875 -61.40625 27.6875 -61.40625 Z M 19.953125 -35.25 L 19.953125 -1.53125 L 26.15625 -1.53125 C 29.28125 -1.53125 32.097656 -2.28125 34.609375 -3.78125 C 37.128906 -5.28125 39.148438 -7.300781 40.671875 -9.84375 C 42.203125 -12.394531 42.96875 -15.257812 42.96875 -18.4375 C 42.96875 -21.550781 42.203125 -24.363281 40.671875 -26.875 C 39.148438 -29.394531 37.128906 -31.421875 34.609375 -32.953125 C 32.097656 -34.484375 29.28125 -35.25 26.15625 -35.25 Z M 19.953125 -35.25 "/></g></g></g></g><g fill="#004aad" fill-opacity="1"><g transform="translate(58.578293, 68.653713)"><g><path d="M 36.046875 0 C 34.847656 0 33.785156 -0.390625 32.859375 -1.171875 C 31.929688 -1.953125 31.46875 -3.453125 31.46875 -5.671875 L 31.46875 -7.828125 C 29.375 -5.304688 26.796875 -3.367188 23.734375 -2.015625 C 20.679688 -0.671875 17.472656 0 14.109375 0 C 9.492188 0 5.988281 -1.164062 3.59375 -3.5 C 1.195312 -5.84375 0 -8.570312 0 -11.6875 C 0 -14.445312 0.65625 -16.785156 1.96875 -18.703125 C 3.289062 -20.617188 4.984375 -22.28125 7.046875 -23.6875 C 9.117188 -25.09375 11.335938 -26.363281 13.703125 -27.5 C 16.078125 -28.644531 18.359375 -29.800781 20.546875 -30.96875 C 22.734375 -32.132812 24.578125 -33.46875 26.078125 -34.96875 C 27.753906 -36.644531 28.5 -38.144531 28.3125 -39.46875 C 28.132812 -40.789062 27.367188 -41.8125 26.015625 -42.53125 C 24.671875 -43.25 23.070312 -43.546875 21.21875 -43.421875 C 18.15625 -43.304688 15.960938 -42.554688 14.640625 -41.171875 C 13.328125 -39.796875 12.835938 -38.3125 13.171875 -36.71875 C 13.503906 -35.132812 14.566406 -33.863281 16.359375 -32.90625 C 15.578125 -31.582031 14.269531 -30.617188 12.4375 -30.015625 C 10.613281 -29.421875 8.984375 -29.15625 7.546875 -29.21875 C 5.691406 -29.28125 3.96875 -29.789062 2.375 -30.75 C 0.789062 -31.707031 0 -33.207031 0 -35.25 C 0 -36.976562 0.566406 -38.441406 1.703125 -39.640625 C 2.847656 -40.847656 4.316406 -41.796875 6.109375 -42.484375 C 7.910156 -43.171875 9.859375 -43.691406 11.953125 -44.046875 C 14.054688 -44.410156 16.050781 -44.648438 17.9375 -44.765625 C 19.820312 -44.890625 21.425781 -44.953125 22.75 -44.953125 C 24.84375 -44.953125 27.160156 -44.769531 29.703125 -44.40625 C 32.253906 -44.050781 34.679688 -43.394531 36.984375 -42.4375 C 39.296875 -41.476562 41.203125 -40.128906 42.703125 -38.390625 C 44.203125 -36.648438 44.953125 -34.398438 44.953125 -31.640625 L 44.953125 -7.1875 C 44.953125 -4.914062 45.414062 -3.40625 46.34375 -2.65625 C 47.269531 -1.90625 48.332031 -1.53125 49.53125 -1.53125 L 49.53125 0 Z M 29.671875 -38.5625 C 29.671875 -36.882812 29.054688 -35.265625 27.828125 -33.703125 C 26.597656 -32.148438 25.382812 -30.804688 24.1875 -29.671875 C 22.320312 -27.992188 20.59375 -26.421875 19 -24.953125 C 17.414062 -23.484375 16.128906 -21.847656 15.140625 -20.046875 C 14.160156 -18.253906 13.640625 -16.007812 13.578125 -13.3125 C 13.515625 -10.488281 14.234375 -8.207031 15.734375 -6.46875 C 17.234375 -4.726562 19.09375 -3.859375 21.3125 -3.859375 C 23.46875 -3.859375 25.304688 -4.398438 26.828125 -5.484375 C 28.359375 -6.566406 29.515625 -7.988281 30.296875 -9.75 C 31.078125 -11.519531 31.46875 -13.394531 31.46875 -15.375 L 31.46875 -29.671875 C 31.46875 -33.566406 30.867188 -36.53125 29.671875 -38.5625 Z M 29.671875 -38.5625 "/></g></g></g><g fill="#004aad" fill-opacity="1"><g transform="translate(105.953932, 68.653713)"><g><path d="M 31.46875 -1.171875 L 31.46875 -6.75 C 27.15625 -2.25 22.660156 0 17.984375 0 C 14.984375 0 12.101562 -0.851562 9.34375 -2.5625 C 6.59375 -4.269531 4.347656 -6.800781 2.609375 -10.15625 C 0.867188 -13.507812 0 -17.613281 0 -22.46875 C 0 -26.613281 0.628906 -30.390625 1.890625 -33.796875 C 3.148438 -37.210938 5.019531 -39.925781 7.5 -41.9375 C 9.988281 -43.945312 13.125 -44.953125 16.90625 -44.953125 C 19 -44.953125 20.941406 -44.5625 22.734375 -43.78125 C 24.535156 -43 26.097656 -42.007812 27.421875 -40.8125 C 30.421875 -41 33.492188 -41.492188 36.640625 -42.296875 C 39.785156 -43.109375 42.554688 -43.992188 44.953125 -44.953125 L 44.953125 -5.296875 C 44.953125 2.191406 42.613281 7.941406 37.9375 11.953125 C 33.257812 15.972656 26.546875 17.984375 17.796875 17.984375 C 16.421875 17.984375 14.847656 17.878906 13.078125 17.671875 C 11.304688 17.460938 9.566406 17.085938 7.859375 16.546875 C 6.148438 16.003906 4.671875 15.253906 3.421875 14.296875 C 2.398438 13.453125 1.617188 12.460938 1.078125 11.328125 C 0.535156 10.191406 0.296875 9.050781 0.359375 7.90625 C 0.484375 5.632812 1.410156 3.851562 3.140625 2.5625 C 4.878906 1.269531 6.800781 0.6875 8.90625 0.8125 C 10.101562 0.8125 11.269531 1.050781 12.40625 1.53125 C 13.539062 2.007812 14.5 2.785156 15.28125 3.859375 C 14.082031 4.523438 13.164062 5.5625 12.53125 6.96875 C 11.90625 8.375 11.679688 9.8125 11.859375 11.28125 C 12.046875 12.75 12.707031 13.960938 13.84375 14.921875 C 14.863281 15.703125 16.078125 16.179688 17.484375 16.359375 C 18.890625 16.535156 20.3125 16.445312 21.75 16.09375 C 24.269531 15.488281 26.234375 14.300781 27.640625 12.53125 C 29.054688 10.769531 30.046875 8.691406 30.609375 6.296875 C 31.179688 3.898438 31.46875 1.410156 31.46875 -1.171875 Z M 31.46875 -8.984375 L 31.46875 -33.359375 C 29.90625 -36.234375 28 -38.253906 25.75 -39.421875 C 23.507812 -40.585938 21.398438 -40.539062 19.421875 -39.28125 C 17.921875 -38.320312 16.734375 -36.898438 15.859375 -35.015625 C 14.992188 -33.128906 14.378906 -31.117188 14.015625 -28.984375 C 13.660156 -26.859375 13.484375 -24.957031 13.484375 -23.28125 C 13.484375 -20.34375 13.796875 -17.453125 14.421875 -14.609375 C 15.054688 -11.765625 16.210938 -9.503906 17.890625 -7.828125 C 19.691406 -5.960938 21.816406 -5.101562 24.265625 -5.25 C 26.722656 -5.40625 28.820312 -6.351562 30.5625 -8.09375 C 30.925781 -8.332031 31.226562 -8.628906 31.46875 -8.984375 Z M 31.46875 -8.984375 "/></g></g></g><g fill="#004aad" fill-opacity="1"><g transform="translate(150.902294, 68.653713)"><g><path d="M 44.953125 -31.375 C 44.953125 -33.894531 44.25 -36.023438 42.84375 -37.765625 C 41.4375 -39.503906 39.640625 -40.894531 37.453125 -41.9375 C 35.265625 -42.988281 32.984375 -43.753906 30.609375 -44.234375 C 28.242188 -44.710938 26.070312 -44.953125 24.09375 -44.953125 C 19.71875 -44.953125 15.703125 -44.019531 12.046875 -42.15625 C 8.390625 -40.300781 5.46875 -37.695312 3.28125 -34.34375 C 1.09375 -30.988281 0 -27.03125 0 -22.46875 C 0 -18.09375 1.046875 -14.210938 3.140625 -10.828125 C 5.242188 -7.441406 8.078125 -4.789062 11.640625 -2.875 C 15.210938 -0.957031 19.125 0 23.375 0 C 26.425781 0 29.375 -0.507812 32.21875 -1.53125 C 35.070312 -2.550781 37.625 -4.035156 39.875 -5.984375 C 42.125 -7.929688 43.816406 -10.3125 44.953125 -13.125 L 44.046875 -13.84375 C 41.472656 -11.988281 39.015625 -10.925781 36.671875 -10.65625 C 34.335938 -10.382812 32.453125 -10.648438 31.015625 -11.453125 C 29.578125 -12.265625 28.921875 -13.332031 29.046875 -14.65625 C 29.160156 -16.03125 29.726562 -17.132812 30.75 -17.96875 C 31.769531 -18.8125 32.921875 -19.488281 34.203125 -20 C 35.492188 -20.507812 36.648438 -21.003906 37.671875 -21.484375 C 39.585938 -22.390625 41.28125 -23.617188 42.75 -25.171875 C 44.21875 -26.734375 44.953125 -28.800781 44.953125 -31.375 Z M 18.25 -40.453125 C 20.050781 -42.078125 21.847656 -43.019531 23.640625 -43.28125 C 25.441406 -43.550781 27.015625 -43.265625 28.359375 -42.421875 C 29.710938 -41.585938 30.671875 -40.316406 31.234375 -38.609375 C 31.804688 -36.898438 31.765625 -34.878906 31.109375 -32.546875 C 30.804688 -31.410156 30.328125 -30.332031 29.671875 -29.3125 C 29.015625 -28.289062 28.351562 -27.269531 27.6875 -26.25 C 25.832031 -23.3125 24.945312 -20.34375 25.03125 -17.34375 C 25.125 -14.351562 26.820312 -11.867188 30.125 -9.890625 C 26.644531 -10.003906 23.390625 -10.972656 20.359375 -12.796875 C 17.335938 -14.628906 15.195312 -17.285156 13.9375 -20.765625 C 13.15625 -22.984375 12.78125 -25.320312 12.8125 -27.78125 C 12.84375 -30.238281 13.320312 -32.578125 14.25 -34.796875 C 15.175781 -37.015625 16.507812 -38.898438 18.25 -40.453125 Z M 18.25 -40.453125 "/></g></g></g><g fill="#004aad" fill-opacity="1"><g transform="translate(193.513301, 68.653713)"><g><path d="M 0 0 L 0 -1.53125 C 1.195312 -1.53125 2.242188 -1.90625 3.140625 -2.65625 C 4.046875 -3.40625 4.5 -4.914062 4.5 -7.1875 L 4.5 -55.734375 C 4.5 -58.015625 4.046875 -59.53125 3.140625 -60.28125 C 2.242188 -61.03125 1.195312 -61.40625 0 -61.40625 L 0 -62.9375 C 3 -63.050781 6.144531 -63.539062 9.4375 -64.40625 C 12.738281 -65.28125 15.585938 -66.195312 17.984375 -67.15625 L 17.984375 -7.1875 C 17.984375 -4.914062 18.445312 -3.40625 19.375 -2.65625 C 20.300781 -1.90625 21.363281 -1.53125 22.5625 -1.53125 L 22.5625 0 Z M 0 0 "/></g></g></g><g fill="#004aad" fill-opacity="1"><g transform="translate(213.739502, 68.653713)"><g><path d="M 44.953125 -13.3125 C 44.953125 -10.550781 44.21875 -8.300781 42.75 -6.5625 C 41.28125 -4.820312 39.390625 -3.472656 37.078125 -2.515625 C 34.773438 -1.554688 32.347656 -0.894531 29.796875 -0.53125 C 27.253906 -0.175781 24.90625 0 22.75 0 C 21.425781 0 19.820312 -0.0546875 17.9375 -0.171875 C 16.050781 -0.296875 14.054688 -0.535156 11.953125 -0.890625 C 9.859375 -1.253906 7.910156 -1.78125 6.109375 -2.46875 C 4.316406 -3.15625 2.847656 -4.097656 1.703125 -5.296875 C 0.566406 -6.503906 0 -7.972656 0 -9.703125 C 0 -11.804688 0.789062 -13.320312 2.375 -14.25 C 3.96875 -15.175781 5.691406 -15.671875 7.546875 -15.734375 C 8.929688 -15.796875 10.535156 -15.523438 12.359375 -14.921875 C 14.191406 -14.328125 15.492188 -13.367188 16.265625 -12.046875 C 14.535156 -11.148438 13.503906 -9.890625 13.171875 -8.265625 C 12.835938 -6.648438 13.328125 -5.164062 14.640625 -3.8125 C 15.960938 -2.46875 18.15625 -1.707031 21.21875 -1.53125 C 23.5 -1.40625 25.566406 -1.65625 27.421875 -2.28125 C 29.273438 -2.914062 30.738281 -3.757812 31.8125 -4.8125 C 32.894531 -5.863281 33.4375 -7.03125 33.4375 -8.3125 C 33.4375 -9.601562 32.71875 -10.847656 31.28125 -12.046875 C 29.84375 -13.242188 27.507812 -14.265625 24.28125 -15.109375 C 22.59375 -15.585938 20.671875 -16.082031 18.515625 -16.59375 C 16.359375 -17.101562 14.203125 -17.726562 12.046875 -18.46875 C 9.890625 -19.21875 7.894531 -20.160156 6.0625 -21.296875 C 4.238281 -22.441406 2.769531 -23.851562 1.65625 -25.53125 C 0.550781 -27.207031 0 -29.242188 0 -31.640625 C 0 -34.398438 0.734375 -36.648438 2.203125 -38.390625 C 3.671875 -40.128906 5.554688 -41.476562 7.859375 -42.4375 C 10.171875 -43.394531 12.597656 -44.050781 15.140625 -44.40625 C 17.691406 -44.769531 20.046875 -44.953125 22.203125 -44.953125 C 23.523438 -44.953125 25.128906 -44.890625 27.015625 -44.765625 C 28.898438 -44.648438 30.890625 -44.410156 32.984375 -44.046875 C 35.085938 -43.691406 37.035156 -43.171875 38.828125 -42.484375 C 40.628906 -41.796875 42.097656 -40.847656 43.234375 -39.640625 C 44.378906 -38.441406 44.953125 -36.976562 44.953125 -35.25 C 44.953125 -33.207031 44.15625 -31.707031 42.5625 -30.75 C 40.976562 -29.789062 39.257812 -29.28125 37.40625 -29.21875 C 36.019531 -29.15625 34.410156 -29.421875 32.578125 -30.015625 C 30.753906 -30.617188 29.457031 -31.582031 28.6875 -32.90625 C 30.476562 -33.863281 31.523438 -35.132812 31.828125 -36.71875 C 32.128906 -38.3125 31.617188 -39.796875 30.296875 -41.171875 C 28.984375 -42.554688 26.796875 -43.304688 23.734375 -43.421875 C 21.453125 -43.546875 19.382812 -43.289062 17.53125 -42.65625 C 15.675781 -42.03125 14.207031 -41.191406 13.125 -40.140625 C 12.050781 -39.085938 11.515625 -37.914062 11.515625 -36.625 C 11.515625 -35.34375 12.234375 -34.101562 13.671875 -32.90625 C 15.109375 -31.707031 17.441406 -30.6875 20.671875 -29.84375 C 22.359375 -29.425781 24.28125 -28.945312 26.4375 -28.40625 C 28.59375 -27.863281 30.75 -27.21875 32.90625 -26.46875 C 35.0625 -25.726562 37.050781 -24.785156 38.875 -23.640625 C 40.707031 -22.503906 42.175781 -21.097656 43.28125 -19.421875 C 44.394531 -17.742188 44.953125 -15.707031 44.953125 -13.3125 Z M 44.953125 -13.3125 "/></g></g></g></g></g><g fill="#7a4900" fill-opacity="1"><g transform="translate(81.885762, 243.043534)"><g><path d="M 2.5 0.515625 C 1.769531 0.515625 1.125 0.328125 0.5625 -0.046875 C 0.53125 -0.0546875 0.507812 -0.0625 0.5 -0.0625 C 0.488281 -0.0703125 0.472656 -0.0820312 0.453125 -0.09375 C 0.441406 -0.0507812 0.429688 0 0.421875 0.0625 L 0.375 0.34375 L -0.625 0.34375 L -0.53125 -0.0625 L -0.046875 -2.40625 L 0.015625 -2.6875 L 0.9375 -2.6875 L 0.890625 -2.296875 C 0.890625 -2.285156 0.890625 -2.269531 0.890625 -2.25 C 0.890625 -2.226562 0.890625 -2.203125 0.890625 -2.171875 C 0.890625 -2.148438 0.890625 -2.125 0.890625 -2.09375 C 0.890625 -2.070312 0.890625 -2.039062 0.890625 -2 C 0.890625 -1.507812 1.019531 -1.15625 1.28125 -0.9375 C 1.5625 -0.707031 1.96875 -0.59375 2.5 -0.59375 C 2.5625 -0.59375 2.617188 -0.59375 2.671875 -0.59375 C 3.097656 -0.625 3.46875 -0.804688 3.78125 -1.140625 C 4.132812 -1.503906 4.3125 -1.914062 4.3125 -2.375 C 4.3125 -2.601562 4.257812 -2.789062 4.15625 -2.9375 C 4.050781 -3.082031 3.878906 -3.21875 3.640625 -3.34375 L 2.515625 -3.921875 C 1.515625 -4.398438 1.015625 -5.171875 1.015625 -6.234375 C 1.015625 -7.035156 1.320312 -7.753906 1.9375 -8.390625 C 2.375 -8.835938 2.890625 -9.125 3.484375 -9.25 C 3.734375 -9.3125 3.988281 -9.34375 4.25 -9.34375 C 4.457031 -9.34375 4.660156 -9.320312 4.859375 -9.28125 C 5.054688 -9.238281 5.242188 -9.175781 5.421875 -9.09375 C 5.609375 -9.019531 5.785156 -8.925781 5.953125 -8.8125 L 5.984375 -8.8125 L 6.03125 -9 L 6.109375 -9.25 L 7.0625 -9.25 L 6.953125 -8.828125 L 6.4375 -6.40625 L 6.390625 -6.125 L 5.46875 -6.125 L 5.515625 -6.515625 C 5.523438 -6.554688 5.53125 -6.597656 5.53125 -6.640625 C 5.53125 -6.679688 5.53125 -6.71875 5.53125 -6.75 C 5.539062 -6.78125 5.546875 -6.804688 5.546875 -6.828125 C 5.546875 -6.847656 5.546875 -6.867188 5.546875 -6.890625 C 5.546875 -7.367188 5.429688 -7.707031 5.203125 -7.90625 C 4.984375 -8.125 4.644531 -8.234375 4.1875 -8.234375 C 4.070312 -8.234375 3.960938 -8.222656 3.859375 -8.203125 C 3.554688 -8.140625 3.285156 -7.984375 3.046875 -7.734375 C 2.710938 -7.378906 2.546875 -6.992188 2.546875 -6.578125 C 2.546875 -6.085938 2.769531 -5.722656 3.21875 -5.484375 L 4.65625 -4.75 C 4.9375 -4.59375 5.175781 -4.414062 5.375 -4.21875 C 5.582031 -4.019531 5.738281 -3.796875 5.84375 -3.546875 C 5.945312 -3.296875 6 -3.03125 6 -2.75 C 6 -1.90625 5.644531 -1.144531 4.9375 -0.46875 C 4.238281 0.1875 3.425781 0.515625 2.5 0.515625 Z M 2.5 0.515625 "/></g></g></g><g fill="#7a4900" fill-opacity="1"><g transform="translate(91.080196, 243.043534)"><g><path d="M 2.015625 -9.171875 L 6.234375 -9.171875 C 6.910156 -9.171875 7.378906 -9.207031 7.640625 -9.28125 L 8.359375 -9.484375 L 8.0625 -8.8125 C 7.9375 -8.5 7.773438 -7.914062 7.578125 -7.0625 L 7.5 -6.734375 L 7.4375 -6.40625 L 7.375 -6.125 L 6.40625 -6.125 L 6.4375 -6.53125 L 6.609375 -8.140625 L 3.984375 -8.140625 L 3.3125 -4.953125 L 5.59375 -4.953125 L 5.859375 -5.78125 L 5.9375 -6.015625 L 6.859375 -6.015625 L 6.765625 -5.59375 L 6.484375 -4.265625 L 6.21875 -3.078125 L 6.15625 -2.796875 L 5.234375 -2.796875 L 5.296875 -3.203125 L 5.390625 -3.859375 L 3.09375 -3.859375 L 2.421875 -0.671875 L 5.078125 -0.671875 C 5.140625 -0.691406 5.175781 -0.710938 5.1875 -0.734375 L 5.765625 -2.453125 L 5.859375 -2.6875 L 6.84375 -2.6875 L 6.75 -2.265625 L 6.609375 -1.609375 C 6.441406 -0.796875 6.359375 -0.21875 6.359375 0.125 L 6.359375 0.609375 L 5.90625 0.46875 C 5.664062 0.382812 5.21875 0.34375 4.5625 0.34375 L -0.265625 0.34375 L -0.1875 -0.0625 L -0.15625 -0.3125 L -0.09375 -0.609375 L 0.75 -0.609375 C 1.632812 -4.804688 2.164062 -7.34375 2.34375 -8.21875 L 1.5625 -8.21875 L 1.625 -8.625 L 1.671875 -8.875 L 1.71875 -9.171875 Z M 2.015625 -9.171875 "/></g></g></g><g fill="#7a4900" fill-opacity="1"><g transform="translate(101.463969, 243.043534)"><g><path d="M 3.640625 -3.71875 L 3.046875 -3.71875 C 2.703125 -2.125 2.484375 -1.085938 2.390625 -0.609375 L 3.46875 -0.609375 L 3.40625 -0.203125 L 3.359375 0.0625 L 3.3125 0.34375 L -0.265625 0.34375 L -0.1875 -0.0625 L -0.15625 -0.3125 L -0.09375 -0.609375 L 0.75 -0.609375 C 1.632812 -4.804688 2.164062 -7.34375 2.34375 -8.21875 L 1.5625 -8.21875 L 1.625 -8.625 L 1.671875 -8.875 L 1.71875 -9.171875 L 5.203125 -9.171875 C 5.921875 -9.171875 6.523438 -8.976562 7.015625 -8.59375 C 7.523438 -8.195312 7.78125 -7.617188 7.78125 -6.859375 C 7.78125 -6.128906 7.519531 -5.484375 7 -4.921875 C 6.832031 -4.742188 6.648438 -4.582031 6.453125 -4.4375 C 6.253906 -4.300781 6.046875 -4.179688 5.828125 -4.078125 C 6.179688 -3.734375 6.359375 -3.253906 6.359375 -2.640625 C 6.359375 -2.535156 6.351562 -2.421875 6.34375 -2.296875 C 6.332031 -2.179688 6.316406 -2.054688 6.296875 -1.921875 C 6.273438 -1.796875 6.25 -1.65625 6.21875 -1.5 C 6.132812 -1.082031 6.09375 -0.816406 6.09375 -0.703125 L 6.09375 -0.671875 C 6.1875 -0.703125 6.289062 -0.800781 6.40625 -0.96875 C 6.613281 -1.226562 6.796875 -1.609375 6.953125 -2.109375 L 7.0625 -2.421875 L 7.625 -2.28125 L 7.984375 -2.203125 L 7.875 -1.828125 C 7.601562 -1.035156 7.296875 -0.453125 6.953125 -0.078125 C 6.578125 0.316406 6.128906 0.515625 5.609375 0.515625 C 5.503906 0.515625 5.40625 0.5 5.3125 0.46875 C 5.21875 0.445312 5.128906 0.410156 5.046875 0.359375 C 4.960938 0.304688 4.890625 0.242188 4.828125 0.171875 C 4.710938 0.0546875 4.632812 -0.0703125 4.59375 -0.21875 C 4.550781 -0.375 4.53125 -0.539062 4.53125 -0.71875 C 4.53125 -1.019531 4.570312 -1.398438 4.65625 -1.859375 C 4.75 -2.273438 4.796875 -2.644531 4.796875 -2.96875 C 4.796875 -3.207031 4.71875 -3.390625 4.5625 -3.515625 C 4.375 -3.648438 4.066406 -3.71875 3.640625 -3.71875 Z M 5.0625 -8.140625 L 3.984375 -8.140625 L 3.265625 -4.765625 L 4.234375 -4.765625 C 4.421875 -4.765625 4.585938 -4.785156 4.734375 -4.828125 C 4.890625 -4.878906 5.035156 -4.953125 5.171875 -5.046875 C 5.316406 -5.148438 5.457031 -5.285156 5.59375 -5.453125 C 5.71875 -5.617188 5.820312 -5.785156 5.90625 -5.953125 C 5.988281 -6.117188 6.050781 -6.285156 6.09375 -6.453125 C 6.132812 -6.628906 6.15625 -6.804688 6.15625 -6.984375 C 6.15625 -7.335938 6.0625 -7.625 5.875 -7.84375 C 5.695312 -8.039062 5.425781 -8.140625 5.0625 -8.140625 Z M 5.0625 -8.140625 "/></g></g></g><g fill="#7a4900" fill-opacity="1"><g transform="translate(112.197543, 243.043534)"><g><path d="M 4 -8.21875 L 2.40625 -0.609375 L 3.1875 -0.609375 L 3.125 -0.203125 L 3.078125 0.0625 L 3.03125 0.34375 L -0.265625 0.34375 L -0.1875 -0.0625 L -0.15625 -0.3125 L -0.09375 -0.609375 L 0.75 -0.609375 C 1.632812 -4.804688 2.164062 -7.34375 2.34375 -8.21875 L 1.5625 -8.21875 L 1.625 -8.625 L 1.671875 -8.875 L 1.71875 -9.171875 L 5.015625 -9.171875 L 4.9375 -8.765625 L 4.90625 -8.515625 L 4.84375 -8.21875 Z M 4 -8.21875 "/></g></g></g><g fill="#7a4900" fill-opacity="1"><g transform="translate(119.293142, 243.043534)"><g><path d="M 3.78125 -8.953125 C 4.363281 -9.210938 4.984375 -9.34375 5.640625 -9.34375 C 6.671875 -9.34375 7.484375 -9.03125 8.078125 -8.40625 C 8.679688 -7.78125 8.984375 -6.914062 8.984375 -5.8125 C 8.984375 -5.457031 8.953125 -5.097656 8.890625 -4.734375 C 8.835938 -4.367188 8.753906 -4.003906 8.640625 -3.640625 C 8.554688 -3.398438 8.460938 -3.164062 8.359375 -2.9375 C 8.265625 -2.707031 8.160156 -2.484375 8.046875 -2.265625 C 7.929688 -2.046875 7.800781 -1.832031 7.65625 -1.625 C 7.445312 -1.300781 7.195312 -1.007812 6.90625 -0.75 C 6.625 -0.5 6.3125 -0.273438 5.96875 -0.078125 C 5.726562 0.0546875 5.476562 0.164062 5.21875 0.25 C 4.96875 0.34375 4.703125 0.410156 4.421875 0.453125 C 4.148438 0.492188 3.863281 0.515625 3.5625 0.515625 C 2.625 0.515625 1.851562 0.195312 1.25 -0.4375 C 0.644531 -1.0625 0.34375 -1.953125 0.34375 -3.109375 C 0.34375 -4.222656 0.648438 -5.351562 1.265625 -6.5 C 1.890625 -7.644531 2.726562 -8.460938 3.78125 -8.953125 Z M 5.59375 -8.28125 C 5.320312 -8.28125 5.0625 -8.234375 4.8125 -8.140625 C 4.570312 -8.054688 4.335938 -7.925781 4.109375 -7.75 C 3.628906 -7.382812 3.242188 -6.925781 2.953125 -6.375 C 2.742188 -5.957031 2.570312 -5.550781 2.4375 -5.15625 C 2.300781 -4.769531 2.195312 -4.382812 2.125 -4 C 2.0625 -3.625 2.03125 -3.253906 2.03125 -2.890625 C 2.03125 -2.117188 2.1875 -1.53125 2.5 -1.125 C 2.800781 -0.738281 3.207031 -0.546875 3.71875 -0.546875 C 3.988281 -0.546875 4.25 -0.585938 4.5 -0.671875 C 4.75 -0.753906 4.988281 -0.882812 5.21875 -1.0625 C 5.707031 -1.4375 6.097656 -1.898438 6.390625 -2.453125 C 7.003906 -3.640625 7.3125 -4.796875 7.3125 -5.921875 C 7.3125 -6.679688 7.144531 -7.269531 6.8125 -7.6875 C 6.507812 -8.082031 6.101562 -8.28125 5.59375 -8.28125 Z M 5.59375 -8.28125 "/></g></g></g><g fill="#7a4900" fill-opacity="1"><g transform="translate(130.866243, 243.043534)"><g><path d="M 0.90625 -2.796875 L 2.0625 -8.21875 L 1.265625 -8.21875 L 1.328125 -8.625 L 1.375 -8.875 L 1.421875 -9.171875 L 4.71875 -9.171875 L 4.640625 -8.765625 L 4.609375 -8.515625 L 4.546875 -8.21875 L 3.703125 -8.21875 L 2.5 -2.5625 C 2.488281 -2.476562 2.476562 -2.398438 2.46875 -2.328125 C 2.457031 -2.253906 2.445312 -2.179688 2.4375 -2.109375 C 2.4375 -2.046875 2.4375 -1.984375 2.4375 -1.921875 C 2.4375 -1.679688 2.46875 -1.484375 2.53125 -1.328125 C 2.59375 -1.179688 2.679688 -1.0625 2.796875 -0.96875 C 3.054688 -0.75 3.414062 -0.640625 3.875 -0.640625 C 4.320312 -0.640625 4.800781 -0.800781 5.3125 -1.125 C 5.820312 -1.445312 6.160156 -2 6.328125 -2.78125 L 7.46875 -8.21875 L 6.671875 -8.21875 L 6.75 -8.625 L 6.796875 -8.875 L 6.84375 -9.171875 L 9.640625 -9.171875 L 9.578125 -8.765625 L 9.53125 -8.515625 L 9.484375 -8.21875 L 8.640625 -8.21875 L 7.46875 -2.65625 C 7.25 -1.601562 6.789062 -0.8125 6.09375 -0.28125 C 5.394531 0.25 4.59375 0.515625 3.6875 0.515625 C 2.769531 0.515625 2.054688 0.3125 1.546875 -0.09375 C 1.046875 -0.507812 0.796875 -1.109375 0.796875 -1.890625 C 0.796875 -2.191406 0.832031 -2.492188 0.90625 -2.796875 Z M 0.90625 -2.796875 "/></g></g></g><g fill="#7a4900" fill-opacity="1"><g transform="translate(142.187493, 243.043534)"><g><path d="M 2.5 0.515625 C 1.769531 0.515625 1.125 0.328125 0.5625 -0.046875 C 0.53125 -0.0546875 0.507812 -0.0625 0.5 -0.0625 C 0.488281 -0.0703125 0.472656 -0.0820312 0.453125 -0.09375 C 0.441406 -0.0507812 0.429688 0 0.421875 0.0625 L 0.375 0.34375 L -0.625 0.34375 L -0.53125 -0.0625 L -0.046875 -2.40625 L 0.015625 -2.6875 L 0.9375 -2.6875 L 0.890625 -2.296875 C 0.890625 -2.285156 0.890625 -2.269531 0.890625 -2.25 C 0.890625 -2.226562 0.890625 -2.203125 0.890625 -2.171875 C 0.890625 -2.148438 0.890625 -2.125 0.890625 -2.09375 C 0.890625 -2.070312 0.890625 -2.039062 0.890625 -2 C 0.890625 -1.507812 1.019531 -1.15625 1.28125 -0.9375 C 1.5625 -0.707031 1.96875 -0.59375 2.5 -0.59375 C 2.5625 -0.59375 2.617188 -0.59375 2.671875 -0.59375 C 3.097656 -0.625 3.46875 -0.804688 3.78125 -1.140625 C 4.132812 -1.503906 4.3125 -1.914062 4.3125 -2.375 C 4.3125 -2.601562 4.257812 -2.789062 4.15625 -2.9375 C 4.050781 -3.082031 3.878906 -3.21875 3.640625 -3.34375 L 2.515625 -3.921875 C 1.515625 -4.398438 1.015625 -5.171875 1.015625 -6.234375 C 1.015625 -7.035156 1.320312 -7.753906 1.9375 -8.390625 C 2.375 -8.835938 2.890625 -9.125 3.484375 -9.25 C 3.734375 -9.3125 3.988281 -9.34375 4.25 -9.34375 C 4.457031 -9.34375 4.660156 -9.320312 4.859375 -9.28125 C 5.054688 -9.238281 5.242188 -9.175781 5.421875 -9.09375 C 5.609375 -9.019531 5.785156 -8.925781 5.953125 -8.8125 L 5.984375 -8.8125 L 6.03125 -9 L 6.109375 -9.25 L 7.0625 -9.25 L 6.953125 -8.828125 L 6.4375 -6.40625 L 6.390625 -6.125 L 5.46875 -6.125 L 5.515625 -6.515625 C 5.523438 -6.554688 5.53125 -6.597656 5.53125 -6.640625 C 5.53125 -6.679688 5.53125 -6.71875 5.53125 -6.75 C 5.539062 -6.78125 5.546875 -6.804688 5.546875 -6.828125 C 5.546875 -6.847656 5.546875 -6.867188 5.546875 -6.890625 C 5.546875 -7.367188 5.429688 -7.707031 5.203125 -7.90625 C 4.984375 -8.125 4.644531 -8.234375 4.1875 -8.234375 C 4.070312 -8.234375 3.960938 -8.222656 3.859375 -8.203125 C 3.554688 -8.140625 3.285156 -7.984375 3.046875 -7.734375 C 2.710938 -7.378906 2.546875 -6.992188 2.546875 -6.578125 C 2.546875 -6.085938 2.769531 -5.722656 3.21875 -5.484375 L 4.65625 -4.75 C 4.9375 -4.59375 5.175781 -4.414062 5.375 -4.21875 C 5.582031 -4.019531 5.738281 -3.796875 5.84375 -3.546875 C 5.945312 -3.296875 6 -3.03125 6 -2.75 C 6 -1.90625 5.644531 -1.144531 4.9375 -0.46875 C 4.238281 0.1875 3.425781 0.515625 2.5 0.515625 Z M 2.5 0.515625 "/></g></g></g><g fill="#7a4900" fill-opacity="1"><g transform="translate(151.381927, 243.043534)"><g><path d="M 4 -8.21875 L 2.421875 -0.671875 L 4.75 -0.671875 C 4.800781 -0.671875 4.828125 -0.671875 4.828125 -0.671875 C 4.835938 -0.679688 4.847656 -0.703125 4.859375 -0.734375 L 5.4375 -2.453125 L 5.515625 -2.6875 L 6.515625 -2.6875 L 6.40625 -2.265625 L 6.28125 -1.609375 C 6.101562 -0.816406 6.015625 -0.238281 6.015625 0.125 L 6.015625 0.609375 L 5.578125 0.46875 C 5.328125 0.382812 4.878906 0.34375 4.234375 0.34375 L -0.265625 0.34375 L -0.1875 -0.0625 L -0.15625 -0.3125 L -0.09375 -0.609375 L 0.75 -0.609375 C 1.632812 -4.804688 2.164062 -7.34375 2.34375 -8.21875 L 1.5625 -8.21875 L 1.625 -8.625 L 1.671875 -8.875 L 1.71875 -9.171875 L 5.015625 -9.171875 L 4.9375 -8.765625 L 4.90625 -8.515625 L 4.84375 -8.21875 Z M 4 -8.21875 "/></g></g></g><g fill="#7a4900" fill-opacity="1"><g transform="translate(160.520389, 243.043534)"><g><path d="M 3.5 -2.3125 L 2.890625 -2.234375 L 2.5625 -2.21875 L 2.5 -2.515625 L 1.234375 -8.21875 L 0.4375 -8.21875 L 0.5 -8.625 L 0.546875 -8.875 L 0.609375 -9.171875 L 3.625 -9.171875 L 3.5625 -8.765625 L 3.515625 -8.515625 L 3.453125 -8.21875 L 2.9375 -8.21875 L 3.78125 -4.53125 L 5.96875 -8.21875 L 5.5 -8.21875 L 5.578125 -8.625 L 5.609375 -8.875 L 5.671875 -9.171875 L 8.1875 -9.171875 L 8.125 -8.765625 L 8.078125 -8.515625 L 8.015625 -8.21875 L 7.265625 -8.21875 C 7.253906 -8.207031 7.242188 -8.195312 7.234375 -8.1875 L 3.75 -2.484375 L 3.671875 -2.34375 Z M 2.890625 -3.71875 L 3.796875 -3.484375 L 4.109375 -3.40625 L 4.046875 -3.078125 C 3.921875 -2.472656 3.8125 -1.957031 3.71875 -1.53125 C 3.632812 -1.113281 3.578125 -0.804688 3.546875 -0.609375 L 4.640625 -0.609375 L 4.5625 -0.203125 L 4.515625 0.0625 L 4.46875 0.34375 L 0.5625 0.34375 L 0.625 -0.0625 L 0.671875 -0.3125 L 0.734375 -0.609375 L 1.875 -0.609375 L 2.484375 -3.453125 L 2.546875 -3.828125 Z M 2.890625 -3.71875 "/></g></g></g><g fill="#7a4900" fill-opacity="1"><g transform="translate(221.935626, 243.043534)"><g><path d="M 2.5 0.515625 C 1.769531 0.515625 1.125 0.328125 0.5625 -0.046875 C 0.53125 -0.0546875 0.507812 -0.0625 0.5 -0.0625 C 0.488281 -0.0703125 0.472656 -0.0820312 0.453125 -0.09375 C 0.441406 -0.0507812 0.429688 0 0.421875 0.0625 L 0.375 0.34375 L -0.625 0.34375 L -0.53125 -0.0625 L -0.046875 -2.40625 L 0.015625 -2.6875 L 0.9375 -2.6875 L 0.890625 -2.296875 C 0.890625 -2.285156 0.890625 -2.269531 0.890625 -2.25 C 0.890625 -2.226562 0.890625 -2.203125 0.890625 -2.171875 C 0.890625 -2.148438 0.890625 -2.125 0.890625 -2.09375 C 0.890625 -2.070312 0.890625 -2.039062 0.890625 -2 C 0.890625 -1.507812 1.019531 -1.15625 1.28125 -0.9375 C 1.5625 -0.707031 1.96875 -0.59375 2.5 -0.59375 C 2.5625 -0.59375 2.617188 -0.59375 2.671875 -0.59375 C 3.097656 -0.625 3.46875 -0.804688 3.78125 -1.140625 C 4.132812 -1.503906 4.3125 -1.914062 4.3125 -2.375 C 4.3125 -2.601562 4.257812 -2.789062 4.15625 -2.9375 C 4.050781 -3.082031 3.878906 -3.21875 3.640625 -3.34375 L 2.515625 -3.921875 C 1.515625 -4.398438 1.015625 -5.171875 1.015625 -6.234375 C 1.015625 -7.035156 1.320312 -7.753906 1.9375 -8.390625 C 2.375 -8.835938 2.890625 -9.125 3.484375 -9.25 C 3.734375 -9.3125 3.988281 -9.34375 4.25 -9.34375 C 4.457031 -9.34375 4.660156 -9.320312 4.859375 -9.28125 C 5.054688 -9.238281 5.242188 -9.175781 5.421875 -9.09375 C 5.609375 -9.019531 5.785156 -8.925781 5.953125 -8.8125 L 5.984375 -8.8125 L 6.03125 -9 L 6.109375 -9.25 L 7.0625 -9.25 L 6.953125 -8.828125 L 6.4375 -6.40625 L 6.390625 -6.125 L 5.46875 -6.125 L 5.515625 -6.515625 C 5.523438 -6.554688 5.53125 -6.597656 5.53125 -6.640625 C 5.53125 -6.679688 5.53125 -6.71875 5.53125 -6.75 C 5.539062 -6.78125 5.546875 -6.804688 5.546875 -6.828125 C 5.546875 -6.847656 5.546875 -6.867188 5.546875 -6.890625 C 5.546875 -7.367188 5.429688 -7.707031 5.203125 -7.90625 C 4.984375 -8.125 4.644531 -8.234375 4.1875 -8.234375 C 4.070312 -8.234375 3.960938 -8.222656 3.859375 -8.203125 C 3.554688 -8.140625 3.285156 -7.984375 3.046875 -7.734375 C 2.710938 -7.378906 2.546875 -6.992188 2.546875 -6.578125 C 2.546875 -6.085938 2.769531 -5.722656 3.21875 -5.484375 L 4.65625 -4.75 C 4.9375 -4.59375 5.175781 -4.414062 5.375 -4.21875 C 5.582031 -4.019531 5.738281 -3.796875 5.84375 -3.546875 C 5.945312 -3.296875 6 -3.03125 6 -2.75 C 6 -1.90625 5.644531 -1.144531 4.9375 -0.46875 C 4.238281 0.1875 3.425781 0.515625 2.5 0.515625 Z M 2.5 0.515625 "/></g></g></g><g fill="#7a4900" fill-opacity="1"><g transform="translate(231.13006, 243.043534)"><g><path d="M 3.78125 -8.953125 C 4.363281 -9.210938 4.984375 -9.34375 5.640625 -9.34375 C 6.671875 -9.34375 7.484375 -9.03125 8.078125 -8.40625 C 8.679688 -7.78125 8.984375 -6.914062 8.984375 -5.8125 C 8.984375 -5.457031 8.953125 -5.097656 8.890625 -4.734375 C 8.835938 -4.367188 8.753906 -4.003906 8.640625 -3.640625 C 8.554688 -3.398438 8.460938 -3.164062 8.359375 -2.9375 C 8.265625 -2.707031 8.160156 -2.484375 8.046875 -2.265625 C 7.929688 -2.046875 7.800781 -1.832031 7.65625 -1.625 C 7.445312 -1.300781 7.195312 -1.007812 6.90625 -0.75 C 6.625 -0.5 6.3125 -0.273438 5.96875 -0.078125 C 5.726562 0.0546875 5.476562 0.164062 5.21875 0.25 C 4.96875 0.34375 4.703125 0.410156 4.421875 0.453125 C 4.148438 0.492188 3.863281 0.515625 3.5625 0.515625 C 2.625 0.515625 1.851562 0.195312 1.25 -0.4375 C 0.644531 -1.0625 0.34375 -1.953125 0.34375 -3.109375 C 0.34375 -4.222656 0.648438 -5.351562 1.265625 -6.5 C 1.890625 -7.644531 2.726562 -8.460938 3.78125 -8.953125 Z M 5.59375 -8.28125 C 5.320312 -8.28125 5.0625 -8.234375 4.8125 -8.140625 C 4.570312 -8.054688 4.335938 -7.925781 4.109375 -7.75 C 3.628906 -7.382812 3.242188 -6.925781 2.953125 -6.375 C 2.742188 -5.957031 2.570312 -5.550781 2.4375 -5.15625 C 2.300781 -4.769531 2.195312 -4.382812 2.125 -4 C 2.0625 -3.625 2.03125 -3.253906 2.03125 -2.890625 C 2.03125 -2.117188 2.1875 -1.53125 2.5 -1.125 C 2.800781 -0.738281 3.207031 -0.546875 3.71875 -0.546875 C 3.988281 -0.546875 4.25 -0.585938 4.5 -0.671875 C 4.75 -0.753906 4.988281 -0.882812 5.21875 -1.0625 C 5.707031 -1.4375 6.097656 -1.898438 6.390625 -2.453125 C 7.003906 -3.640625 7.3125 -4.796875 7.3125 -5.921875 C 7.3125 -6.679688 7.144531 -7.269531 6.8125 -7.6875 C 6.507812 -8.082031 6.101562 -8.28125 5.59375 -8.28125 Z M 5.59375 -8.28125 "/></g></g></g><g fill="#7a4900" fill-opacity="1"><g transform="translate(242.70316, 243.043534)"><g><path d="M 0.90625 -2.796875 L 2.0625 -8.21875 L 1.265625 -8.21875 L 1.328125 -8.625 L 1.375 -8.875 L 1.421875 -9.171875 L 4.71875 -9.171875 L 4.640625 -8.765625 L 4.609375 -8.515625 L 4.546875 -8.21875 L 3.703125 -8.21875 L 2.5 -2.5625 C 2.488281 -2.476562 2.476562 -2.398438 2.46875 -2.328125 C 2.457031 -2.253906 2.445312 -2.179688 2.4375 -2.109375 C 2.4375 -2.046875 2.4375 -1.984375 2.4375 -1.921875 C 2.4375 -1.679688 2.46875 -1.484375 2.53125 -1.328125 C 2.59375 -1.179688 2.679688 -1.0625 2.796875 -0.96875 C 3.054688 -0.75 3.414062 -0.640625 3.875 -0.640625 C 4.320312 -0.640625 4.800781 -0.800781 5.3125 -1.125 C 5.820312 -1.445312 6.160156 -2 6.328125 -2.78125 L 7.46875 -8.21875 L 6.671875 -8.21875 L 6.75 -8.625 L 6.796875 -8.875 L 6.84375 -9.171875 L 9.640625 -9.171875 L 9.578125 -8.765625 L 9.53125 -8.515625 L 9.484375 -8.21875 L 8.640625 -8.21875 L 7.46875 -2.65625 C 7.25 -1.601562 6.789062 -0.8125 6.09375 -0.28125 C 5.394531 0.25 4.59375 0.515625 3.6875 0.515625 C 2.769531 0.515625 2.054688 0.3125 1.546875 -0.09375 C 1.046875 -0.507812 0.796875 -1.109375 0.796875 -1.890625 C 0.796875 -2.191406 0.832031 -2.492188 0.90625 -2.796875 Z M 0.90625 -2.796875 "/></g></g></g><g fill="#7a4900" fill-opacity="1"><g transform="translate(254.024411, 243.043534)"><g><path d="M 3.640625 -3.71875 L 3.046875 -3.71875 C 2.703125 -2.125 2.484375 -1.085938 2.390625 -0.609375 L 3.46875 -0.609375 L 3.40625 -0.203125 L 3.359375 0.0625 L 3.3125 0.34375 L -0.265625 0.34375 L -0.1875 -0.0625 L -0.15625 -0.3125 L -0.09375 -0.609375 L 0.75 -0.609375 C 1.632812 -4.804688 2.164062 -7.34375 2.34375 -8.21875 L 1.5625 -8.21875 L 1.625 -8.625 L 1.671875 -8.875 L 1.71875 -9.171875 L 5.203125 -9.171875 C 5.921875 -9.171875 6.523438 -8.976562 7.015625 -8.59375 C 7.523438 -8.195312 7.78125 -7.617188 7.78125 -6.859375 C 7.78125 -6.128906 7.519531 -5.484375 7 -4.921875 C 6.832031 -4.742188 6.648438 -4.582031 6.453125 -4.4375 C 6.253906 -4.300781 6.046875 -4.179688 5.828125 -4.078125 C 6.179688 -3.734375 6.359375 -3.253906 6.359375 -2.640625 C 6.359375 -2.535156 6.351562 -2.421875 6.34375 -2.296875 C 6.332031 -2.179688 6.316406 -2.054688 6.296875 -1.921875 C 6.273438 -1.796875 6.25 -1.65625 6.21875 -1.5 C 6.132812 -1.082031 6.09375 -0.816406 6.09375 -0.703125 L 6.09375 -0.671875 C 6.1875 -0.703125 6.289062 -0.800781 6.40625 -0.96875 C 6.613281 -1.226562 6.796875 -1.609375 6.953125 -2.109375 L 7.0625 -2.421875 L 7.625 -2.28125 L 7.984375 -2.203125 L 7.875 -1.828125 C 7.601562 -1.035156 7.296875 -0.453125 6.953125 -0.078125 C 6.578125 0.316406 6.128906 0.515625 5.609375 0.515625 C 5.503906 0.515625 5.40625 0.5 5.3125 0.46875 C 5.21875 0.445312 5.128906 0.410156 5.046875 0.359375 C 4.960938 0.304688 4.890625 0.242188 4.828125 0.171875 C 4.710938 0.0546875 4.632812 -0.0703125 4.59375 -0.21875 C 4.550781 -0.375 4.53125 -0.539062 4.53125 -0.71875 C 4.53125 -1.019531 4.570312 -1.398438 4.65625 -1.859375 C 4.75 -2.273438 4.796875 -2.644531 4.796875 -2.96875 C 4.796875 -3.207031 4.71875 -3.390625 4.5625 -3.515625 C 4.375 -3.648438 4.066406 -3.71875 3.640625 -3.71875 Z M 5.0625 -8.140625 L 3.984375 -8.140625 L 3.265625 -4.765625 L 4.234375 -4.765625 C 4.421875 -4.765625 4.585938 -4.785156 4.734375 -4.828125 C 4.890625 -4.878906 5.035156 -4.953125 5.171875 -5.046875 C 5.316406 -5.148438 5.457031 -5.285156 5.59375 -5.453125 C 5.71875 -5.617188 5.820312 -5.785156 5.90625 -5.953125 C 5.988281 -6.117188 6.050781 -6.285156 6.09375 -6.453125 C 6.132812 -6.628906 6.15625 -6.804688 6.15625 -6.984375 C 6.15625 -7.335938 6.0625 -7.625 5.875 -7.84375 C 5.695312 -8.039062 5.425781 -8.140625 5.0625 -8.140625 Z M 5.0625 -8.140625 "/></g></g></g><g fill="#7a4900" fill-opacity="1"><g transform="translate(264.757984, 243.043534)"><g><path d="M 5.328125 -8.140625 L 3.984375 -8.140625 L 2.421875 -0.671875 L 3.609375 -0.671875 C 4.128906 -0.671875 4.613281 -0.832031 5.0625 -1.15625 C 5.289062 -1.320312 5.5 -1.515625 5.6875 -1.734375 C 5.875 -1.960938 6.035156 -2.207031 6.171875 -2.46875 C 6.484375 -3.03125 6.710938 -3.59375 6.859375 -4.15625 C 7.003906 -4.71875 7.078125 -5.28125 7.078125 -5.84375 C 7.078125 -6.59375 6.910156 -7.171875 6.578125 -7.578125 C 6.265625 -7.953125 5.847656 -8.140625 5.328125 -8.140625 Z M 2.015625 -9.171875 L 5.40625 -9.171875 C 6.4375 -9.171875 7.253906 -8.863281 7.859375 -8.25 C 8.472656 -7.632812 8.78125 -6.789062 8.78125 -5.71875 C 8.78125 -5.007812 8.660156 -4.300781 8.421875 -3.59375 C 8.171875 -2.894531 7.835938 -2.257812 7.421875 -1.6875 C 6.992188 -1.082031 6.441406 -0.59375 5.765625 -0.21875 C 5.648438 -0.15625 5.53125 -0.0976562 5.40625 -0.046875 C 5.289062 0.00390625 5.175781 0.0507812 5.0625 0.09375 C 4.945312 0.132812 4.828125 0.171875 4.703125 0.203125 C 4.578125 0.234375 4.445312 0.257812 4.3125 0.28125 C 4.1875 0.3125 4.054688 0.328125 3.921875 0.328125 C 3.796875 0.335938 3.671875 0.34375 3.546875 0.34375 L -0.265625 0.34375 L -0.1875 -0.0625 L -0.15625 -0.3125 L -0.09375 -0.609375 L 0.75 -0.609375 C 1.632812 -4.804688 2.164062 -7.34375 2.34375 -8.21875 L 1.5625 -8.21875 L 1.625 -8.625 L 1.671875 -8.875 L 1.71875 -9.171875 Z M 2.015625 -9.171875 "/></g></g></g><g fill="#7a4900" fill-opacity="1"><g transform="translate(276.107215, 243.043534)"><g><path d="M 3.78125 -8.953125 C 4.363281 -9.210938 4.984375 -9.34375 5.640625 -9.34375 C 6.671875 -9.34375 7.484375 -9.03125 8.078125 -8.40625 C 8.679688 -7.78125 8.984375 -6.914062 8.984375 -5.8125 C 8.984375 -5.457031 8.953125 -5.097656 8.890625 -4.734375 C 8.835938 -4.367188 8.753906 -4.003906 8.640625 -3.640625 C 8.554688 -3.398438 8.460938 -3.164062 8.359375 -2.9375 C 8.265625 -2.707031 8.160156 -2.484375 8.046875 -2.265625 C 7.929688 -2.046875 7.800781 -1.832031 7.65625 -1.625 C 7.445312 -1.300781 7.195312 -1.007812 6.90625 -0.75 C 6.625 -0.5 6.3125 -0.273438 5.96875 -0.078125 C 5.726562 0.0546875 5.476562 0.164062 5.21875 0.25 C 4.96875 0.34375 4.703125 0.410156 4.421875 0.453125 C 4.148438 0.492188 3.863281 0.515625 3.5625 0.515625 C 2.625 0.515625 1.851562 0.195312 1.25 -0.4375 C 0.644531 -1.0625 0.34375 -1.953125 0.34375 -3.109375 C 0.34375 -4.222656 0.648438 -5.351562 1.265625 -6.5 C 1.890625 -7.644531 2.726562 -8.460938 3.78125 -8.953125 Z M 5.59375 -8.28125 C 5.320312 -8.28125 5.0625 -8.234375 4.8125 -8.140625 C 4.570312 -8.054688 4.335938 -7.925781 4.109375 -7.75 C 3.628906 -7.382812 3.242188 -6.925781 2.953125 -6.375 C 2.742188 -5.957031 2.570312 -5.550781 2.4375 -5.15625 C 2.300781 -4.769531 2.195312 -4.382812 2.125 -4 C 2.0625 -3.625 2.03125 -3.253906 2.03125 -2.890625 C 2.03125 -2.117188 2.1875 -1.53125 2.5 -1.125 C 2.800781 -0.738281 3.207031 -0.546875 3.71875 -0.546875 C 3.988281 -0.546875 4.25 -0.585938 4.5 -0.671875 C 4.75 -0.753906 4.988281 -0.882812 5.21875 -1.0625 C 5.707031 -1.4375 6.097656 -1.898438 6.390625 -2.453125 C 7.003906 -3.640625 7.3125 -4.796875 7.3125 -5.921875 C 7.3125 -6.679688 7.144531 -7.269531 6.8125 -7.6875 C 6.507812 -8.082031 6.101562 -8.28125 5.59375 -8.28125 Z M 5.59375 -8.28125 "/></g></g></g><g fill="#7a4900" fill-opacity="1"><g transform="translate(287.680315, 243.043534)"><g><path d="M 0.90625 -2.796875 L 2.0625 -8.21875 L 1.265625 -8.21875 L 1.328125 -8.625 L 1.375 -8.875 L 1.421875 -9.171875 L 4.71875 -9.171875 L 4.640625 -8.765625 L 4.609375 -8.515625 L 4.546875 -8.21875 L 3.703125 -8.21875 L 2.5 -2.5625 C 2.488281 -2.476562 2.476562 -2.398438 2.46875 -2.328125 C 2.457031 -2.253906 2.445312 -2.179688 2.4375 -2.109375 C 2.4375 -2.046875 2.4375 -1.984375 2.4375 -1.921875 C 2.4375 -1.679688 2.46875 -1.484375 2.53125 -1.328125 C 2.59375 -1.179688 2.679688 -1.0625 2.796875 -0.96875 C 3.054688 -0.75 3.414062 -0.640625 3.875 -0.640625 C 4.320312 -0.640625 4.800781 -0.800781 5.3125 -1.125 C 5.820312 -1.445312 6.160156 -2 6.328125 -2.78125 L 7.46875 -8.21875 L 6.671875 -8.21875 L 6.75 -8.625 L 6.796875 -8.875 L 6.84375 -9.171875 L 9.640625 -9.171875 L 9.578125 -8.765625 L 9.53125 -8.515625 L 9.484375 -8.21875 L 8.640625 -8.21875 L 7.46875 -2.65625 C 7.25 -1.601562 6.789062 -0.8125 6.09375 -0.28125 C 5.394531 0.25 4.59375 0.515625 3.6875 0.515625 C 2.769531 0.515625 2.054688 0.3125 1.546875 -0.09375 C 1.046875 -0.507812 0.796875 -1.109375 0.796875 -1.890625 C 0.796875 -2.191406 0.832031 -2.492188 0.90625 -2.796875 Z M 0.90625 -2.796875 "/></g></g></g><g fill="#7a4900" fill-opacity="1"><g transform="translate(299.001565, 243.043534)"><g><path d="M 7.75 -3.015625 L 7.671875 -2.625 C 7.484375 -1.707031 7.015625 -0.953125 6.265625 -0.359375 C 5.671875 0.109375 4.988281 0.390625 4.21875 0.484375 C 4.132812 0.492188 4.046875 0.5 3.953125 0.5 C 3.867188 0.507812 3.78125 0.515625 3.6875 0.515625 C 2.675781 0.515625 1.867188 0.195312 1.265625 -0.4375 C 0.648438 -1.0625 0.34375 -1.925781 0.34375 -3.03125 C 0.34375 -3.75 0.460938 -4.46875 0.703125 -5.1875 C 0.929688 -5.90625 1.257812 -6.578125 1.6875 -7.203125 C 1.90625 -7.515625 2.15625 -7.796875 2.4375 -8.046875 C 2.726562 -8.304688 3.046875 -8.535156 3.390625 -8.734375 C 3.835938 -8.992188 4.316406 -9.171875 4.828125 -9.265625 C 5.097656 -9.316406 5.375 -9.34375 5.65625 -9.34375 C 6.300781 -9.34375 6.90625 -9.15625 7.46875 -8.78125 C 7.5 -8.757812 7.535156 -8.738281 7.578125 -8.71875 L 7.65625 -9 L 7.734375 -9.25 L 8.6875 -9.25 L 8.578125 -8.828125 L 8.0625 -6.40625 L 8.015625 -6.125 L 7.09375 -6.125 L 7.140625 -6.53125 C 7.148438 -6.59375 7.15625 -6.679688 7.15625 -6.796875 C 7.15625 -7.296875 7.019531 -7.65625 6.75 -7.875 C 6.445312 -8.113281 6.035156 -8.234375 5.515625 -8.234375 C 5.441406 -8.234375 5.367188 -8.226562 5.296875 -8.21875 C 5.222656 -8.21875 5.15625 -8.207031 5.09375 -8.1875 C 4.726562 -8.125 4.378906 -7.96875 4.046875 -7.71875 C 3.816406 -7.539062 3.601562 -7.335938 3.40625 -7.109375 C 3.21875 -6.890625 3.050781 -6.644531 2.90625 -6.375 C 2.613281 -5.769531 2.390625 -5.175781 2.234375 -4.59375 C 2.085938 -4.007812 2.015625 -3.429688 2.015625 -2.859375 C 2.015625 -2.097656 2.171875 -1.523438 2.484375 -1.140625 C 2.796875 -0.773438 3.253906 -0.59375 3.859375 -0.59375 C 3.972656 -0.59375 4.082031 -0.597656 4.1875 -0.609375 C 4.664062 -0.671875 5.046875 -0.863281 5.328125 -1.1875 C 5.503906 -1.375 5.65625 -1.617188 5.78125 -1.921875 C 5.914062 -2.234375 6.023438 -2.597656 6.109375 -3.015625 L 5.046875 -3.015625 L 5.125 -3.421875 L 5.171875 -3.671875 L 5.21875 -3.96875 L 8.5 -3.96875 L 8.421875 -3.5625 L 8.390625 -3.296875 L 8.328125 -3.015625 Z M 7.75 -3.015625 "/></g></g></g><g fill="#7a4900" fill-opacity="1"><g transform="translate(309.903046, 243.043534)"><g><path d="M 9.125 -8.21875 L 7.53125 -0.609375 L 8.3125 -0.609375 L 8.25 -0.203125 L 8.203125 0.0625 L 8.15625 0.34375 L 4.859375 0.34375 L 4.921875 -0.0625 L 4.96875 -0.3125 L 5.03125 -0.609375 L 5.875 -0.609375 L 6.546875 -3.859375 L 3.0625 -3.859375 C 2.882812 -3.015625 2.738281 -2.320312 2.625 -1.78125 C 2.519531 -1.238281 2.441406 -0.847656 2.390625 -0.609375 L 3.1875 -0.609375 L 3.125 -0.203125 L 3.078125 0.0625 L 3.03125 0.34375 L -0.265625 0.34375 L -0.1875 -0.0625 L -0.15625 -0.3125 L -0.09375 -0.609375 L 0.75 -0.609375 C 1.632812 -4.804688 2.164062 -7.34375 2.34375 -8.21875 L 1.5625 -8.21875 L 1.625 -8.625 L 1.671875 -8.875 L 1.71875 -9.171875 L 5.015625 -9.171875 L 4.9375 -8.765625 L 4.90625 -8.515625 L 4.84375 -8.21875 L 4 -8.21875 L 3.3125 -4.953125 L 6.78125 -4.953125 C 7.125 -6.609375 7.351562 -7.695312 7.46875 -8.21875 L 6.671875 -8.21875 L 6.75 -8.625 L 6.796875 -8.875 L 6.84375 -9.171875 L 10.140625 -9.171875 L 10.0625 -8.765625 L 10.03125 -8.515625 L 9.96875 -8.21875 Z M 9.125 -8.21875 "/></g></g></g></svg>