<svg xmlns="http://www.w3.org/2000/svg" xmlns:xlink="http://www.w3.org/1999/xlink" width="500" zoomAndPan="magnify" viewBox="0 0 375 374.999991" height="500" preserveAspectRatio="xMidYMid meet" version="1.0"><defs><g/></defs><rect x="-37.5" width="450" fill="#ffffff" y="-37.499999" height="449.999989" fill-opacity="1"/><rect x="-37.5" width="450" fill="#f6f4f0" y="-37.499999" height="449.999989" fill-opacity="1"/><g fill="#004aad" fill-opacity="1"><g transform="translate(129.150885, 209.249122)"><g><path d="M 25.265625 -59.296875 L 19.265625 -59.296875 L 19.265625 -26.828125 L 25.265625 -26.828125 C 28.273438 -26.828125 30.894531 -27.550781 33.125 -29 C 35.351562 -30.445312 37.101562 -32.398438 38.375 -34.859375 C 39.644531 -37.316406 40.28125 -40.050781 40.28125 -43.0625 C 40.28125 -46.070312 39.644531 -48.789062 38.375 -51.21875 C 37.101562 -53.644531 35.351562 -55.597656 33.125 -57.078125 C 30.894531 -58.554688 28.273438 -59.296875 25.265625 -59.296875 Z M 19.265625 -25.265625 L 19.265625 -6.9375 C 19.265625 -4.800781 19.695312 -3.34375 20.5625 -2.5625 C 21.4375 -1.78125 22.453125 -1.390625 23.609375 -1.390625 L 23.609375 0 L 0 0 L 0 -1.390625 C 1.15625 -1.390625 2.164062 -1.78125 3.03125 -2.5625 C 3.90625 -3.34375 4.34375 -4.800781 4.34375 -6.9375 L 4.34375 -53.734375 C 4.34375 -55.929688 3.90625 -57.40625 3.03125 -58.15625 C 2.164062 -58.914062 1.15625 -59.296875 0 -59.296875 L 0 -60.765625 C 4.28125 -60.765625 8.34375 -60.765625 12.1875 -60.765625 C 16.039062 -60.765625 19.90625 -60.765625 23.78125 -60.765625 C 27.664062 -60.765625 31.75 -60.765625 36.03125 -60.765625 C 39.269531 -60.765625 42.347656 -60.113281 45.265625 -58.8125 C 48.191406 -57.507812 50.582031 -55.554688 52.4375 -52.953125 C 54.289062 -50.347656 55.21875 -47.050781 55.21875 -43.0625 C 55.21875 -39.0625 54.289062 -35.742188 52.4375 -33.109375 C 50.582031 -30.484375 48.191406 -28.519531 45.265625 -27.21875 C 42.347656 -25.914062 39.269531 -25.265625 36.03125 -25.265625 Z M 19.265625 -25.265625 "/></g></g></g><g fill="#004aad" fill-opacity="1"><g transform="translate(184.016318, 209.249122)"><g><path d="M 0 0 L 0 -1.46875 C 1.15625 -1.46875 2.179688 -1.816406 3.078125 -2.515625 C 3.972656 -3.210938 4.421875 -4.660156 4.421875 -6.859375 L 4.421875 -53.828125 C 4.421875 -56.023438 3.972656 -57.484375 3.078125 -58.203125 C 2.179688 -58.929688 1.15625 -59.296875 0 -59.296875 L 0 -60.765625 L 40.015625 -60.765625 C 42.566406 -60.765625 44.867188 -60.171875 46.921875 -58.984375 C 48.972656 -57.796875 50.609375 -56.1875 51.828125 -54.15625 C 53.046875 -52.132812 53.65625 -49.910156 53.65625 -47.484375 C 53.65625 -44.472656 52.769531 -41.78125 51 -39.40625 C 49.238281 -37.039062 46.9375 -35.421875 44.09375 -34.546875 C 47.800781 -33.453125 50.796875 -31.34375 53.078125 -28.21875 C 55.367188 -25.09375 56.515625 -21.617188 56.515625 -17.796875 C 56.515625 -14.554688 55.71875 -11.578125 54.125 -8.859375 C 52.53125 -6.140625 50.390625 -3.984375 47.703125 -2.390625 C 45.015625 -0.796875 42.019531 0 38.71875 0 Z M 19.265625 -59.296875 L 19.265625 -35.328125 L 26.734375 -35.328125 C 28.929688 -35.328125 30.925781 -35.863281 32.71875 -36.9375 C 34.519531 -38.007812 35.953125 -39.46875 37.015625 -41.3125 C 38.085938 -43.164062 38.625 -45.222656 38.625 -47.484375 C 38.625 -49.628906 38.085938 -51.597656 37.015625 -53.390625 C 35.953125 -55.179688 34.519531 -56.613281 32.71875 -57.6875 C 30.925781 -58.757812 28.929688 -59.296875 26.734375 -59.296875 Z M 19.265625 -34.03125 L 19.265625 -1.46875 L 25.265625 -1.46875 C 28.273438 -1.46875 30.992188 -2.191406 33.421875 -3.640625 C 35.847656 -5.085938 37.800781 -7.039062 39.28125 -9.5 C 40.757812 -11.96875 41.5 -14.734375 41.5 -17.796875 C 41.5 -20.804688 40.757812 -23.523438 39.28125 -25.953125 C 37.800781 -28.390625 35.847656 -30.34375 33.421875 -31.8125 C 30.992188 -33.289062 28.273438 -34.03125 25.265625 -34.03125 Z M 19.265625 -34.03125 "/></g></g></g></svg>